ISO-10303-21;
HEADER;
FILE_DESCRIPTION (( 'STEP AP203' ),
    '1' );
FILE_NAME ('heatsink_cover.STEP',
    '2022-02-16T14:59:34',
    ( '' ),
    ( '' ),
    'SwSTEP 2.0',
    'SolidWorks 2020',
    '' );
FILE_SCHEMA (( 'CONFIG_CONTROL_DESIGN' ));
ENDSEC;

DATA;
#1 = CARTESIAN_POINT ( 'NONE',  ( 26.50000000000000000, 3.000000000000001332, -46.50000000000000000 ) ) ;
#2 = EDGE_LOOP ( 'NONE', ( #26, #500, #42, #482 ) ) ;
#3 = CARTESIAN_POINT ( 'NONE',  ( 80.00000000000000000, 3.000000000000000000, 0.000000000000000000 ) ) ;
#4 = AXIS2_PLACEMENT_3D ( 'NONE', #168, #486, #123 ) ;
#5 = ORIENTED_EDGE ( 'NONE', *, *, #456, .F. ) ;
#6 = DIRECTION ( 'NONE',  ( 0.000000000000000000, 0.000000000000000000, 1.000000000000000000 ) ) ;
#7 = ORIENTED_EDGE ( 'NONE', *, *, #284, .F. ) ;
#8 = CYLINDRICAL_SURFACE ( 'NONE', #59, 1.249999999999992450 ) ;
#9 = ORIENTED_EDGE ( 'NONE', *, *, #346, .T. ) ;
#10 = MECHANICAL_CONTEXT ( 'NONE', #386, 'mechanical' ) ;
#11 = DIRECTION ( 'NONE',  ( 0.000000000000000000, 0.000000000000000000, -1.000000000000000000 ) ) ;
#12 = AXIS2_PLACEMENT_3D ( 'NONE', #176, #267, #498 ) ;
#13 = CARTESIAN_POINT ( 'NONE',  ( 0.000000000000000000, 0.000000000000000000, 0.000000000000000000 ) ) ;
#14 = DIRECTION ( 'NONE',  ( -0.000000000000000000, -1.000000000000000000, -0.000000000000000000 ) ) ;
#15 = CC_DESIGN_PERSON_AND_ORGANIZATION_ASSIGNMENT ( #347, #198, ( #513 ) ) ;
#16 = PERSON_AND_ORGANIZATION ( #439, #448 ) ;
#17 = DIRECTION ( 'NONE',  ( -0.000000000000000000, -0.000000000000000000, 1.000000000000000000 ) ) ;
#18 = DIRECTION ( 'NONE',  ( -0.000000000000000000, 1.000000000000000000, -0.000000000000000000 ) ) ;
#19 = CIRCLE ( 'NONE', #387, 1.249999999999987121 ) ;
#20 = EDGE_CURVE ( 'NONE', #98, #331, #144, .T. ) ;
#21 = FACE_OUTER_BOUND ( 'NONE', #455, .T. ) ;
#22 = PLANE ( 'NONE',  #141 ) ;
#23 = VERTEX_POINT ( 'NONE', #63 ) ;
#24 =( LENGTH_UNIT ( ) NAMED_UNIT ( * ) SI_UNIT ( .MILLI., .METRE. ) );
#25 = DIRECTION ( 'NONE',  ( -1.000000000000000000, -0.000000000000000000, -0.000000000000000000 ) ) ;
#26 = ORIENTED_EDGE ( 'NONE', *, *, #456, .T. ) ;
#27 = CIRCLE ( 'NONE', #287, 1.249999999999987121 ) ;
#28 =( GEOMETRIC_REPRESENTATION_CONTEXT ( 3 ) GLOBAL_UNCERTAINTY_ASSIGNED_CONTEXT ( ( #497 ) ) GLOBAL_UNIT_ASSIGNED_CONTEXT ( ( #24, #216, #310 ) ) REPRESENTATION_CONTEXT ( 'NONE', 'WORKASPACE' ) );
#29 = CARTESIAN_POINT ( 'NONE',  ( 26.50000000000000000, 3.000000000000000000, -7.749999999999992895 ) ) ;
#30 = EDGE_CURVE ( 'NONE', #525, #124, #416, .T. ) ;
#31 = DATE_AND_TIME ( #522, #41 ) ;
#32 = DIRECTION ( 'NONE',  ( 1.000000000000000000, 0.000000000000000000, 0.000000000000000000 ) ) ;
#33 = COORDINATED_UNIVERSAL_TIME_OFFSET ( 1, 0, .AHEAD. ) ;
#34 = CARTESIAN_POINT ( 'NONE',  ( 26.50000000000000000, 0.000000000000000000, -46.50000000000000000 ) ) ;
#35 = ORIENTED_EDGE ( 'NONE', *, *, #70, .T. ) ;
#36 = CALENDAR_DATE ( 2022, 16, 2 ) ;
#37 = CIRCLE ( 'NONE', #398, 1.249999999999994227 ) ;
#38 = AXIS2_PLACEMENT_3D ( 'NONE', #153, #438, #312 ) ;
#39 = EDGE_CURVE ( 'NONE', #230, #432, #37, .T. ) ;
#40 = PLANE ( 'NONE',  #115 ) ;
#41 = LOCAL_TIME ( 15, 59, 34.00000000000000000, #283 ) ;
#42 = ORIENTED_EDGE ( 'NONE', *, *, #421, .T. ) ;
#43 = CALENDAR_DATE ( 2022, 16, 2 ) ;
#44 = CARTESIAN_POINT ( 'NONE',  ( 0.000000000000000000, 3.000000000000000000, 0.000000000000000000 ) ) ;
#45 = VERTEX_POINT ( 'NONE', #504 ) ;
#46 = DIRECTION ( 'NONE',  ( 0.000000000000000000, 0.000000000000000000, -1.000000000000000000 ) ) ;
#47 = ORIENTED_EDGE ( 'NONE', *, *, #325, .T. ) ;
#48 = DIRECTION ( 'NONE',  ( 0.000000000000000000, -1.000000000000000000, 0.000000000000000000 ) ) ;
#49 = VECTOR ( 'NONE', #61, 1000.000000000000000 ) ;
#50 = ORIENTED_EDGE ( 'NONE', *, *, #449, .T. ) ;
#51 = CC_DESIGN_APPROVAL ( #384, ( #513 ) ) ;
#52 = EDGE_CURVE ( 'NONE', #23, #124, #509, .T. ) ;
#53 = DIRECTION ( 'NONE',  ( 0.000000000000000000, 0.000000000000000000, 1.000000000000000000 ) ) ;
#54 = ORIENTED_EDGE ( 'NONE', *, *, #62, .T. ) ;
#55 = CARTESIAN_POINT ( 'NONE',  ( 53.50000000000000000, 0.000000000000000000, -6.500000000000000888 ) ) ;
#56 = APPLICATION_PROTOCOL_DEFINITION ( 'international standard', 'config_control_design', 1994, #386 ) ;
#57 = EDGE_CURVE ( 'NONE', #169, #446, #445, .T. ) ;
#58 = ORIENTED_EDGE ( 'NONE', *, *, #372, .F. ) ;
#59 = AXIS2_PLACEMENT_3D ( 'NONE', #255, #335, #508 ) ;
#60 = DIRECTION ( 'NONE',  ( 0.000000000000000000, -1.000000000000000000, 0.000000000000000000 ) ) ;
#61 = DIRECTION ( 'NONE',  ( -0.000000000000000000, -1.000000000000000000, -0.000000000000000000 ) ) ;
#62 = EDGE_CURVE ( 'NONE', #197, #158, #139, .T. ) ;
#63 = CARTESIAN_POINT ( 'NONE',  ( 0.000000000000000000, 0.000000000000000000, -53.10000000000000142 ) ) ;
#64 = VECTOR ( 'NONE', #103, 1000.000000000000000 ) ;
#65 = CARTESIAN_POINT ( 'NONE',  ( 26.50000000000000000, 0.000000000000000000, -47.74999999999999289 ) ) ;
#66 = DIRECTION ( 'NONE',  ( 0.000000000000000000, 0.000000000000000000, -1.000000000000000000 ) ) ;
#67 = CARTESIAN_POINT ( 'NONE',  ( 26.50000000000000000, 0.000000000000000000, -7.749999999999992895 ) ) ;
#68 = EDGE_LOOP ( 'NONE', ( #364, #359 ) ) ;
#69 = CARTESIAN_POINT ( 'NONE',  ( 53.50000000000000000, 0.000000000000000000, -7.749999999999994671 ) ) ;
#70 = EDGE_CURVE ( 'NONE', #207, #248, #463, .T. ) ;
#71 = EDGE_LOOP ( 'NONE', ( #211, #327, #429, #477 ) ) ;
#72 = COORDINATED_UNIVERSAL_TIME_OFFSET ( 1, 0, .AHEAD. ) ;
#73 = VECTOR ( 'NONE', #380, 1000.000000000000000 ) ;
#74 = VECTOR ( 'NONE', #370, 1000.000000000000000 ) ;
#75 = CARTESIAN_POINT ( 'NONE',  ( 80.00000000000000000, 3.000000000000000000, 0.000000000000000000 ) ) ;
#76 = VERTEX_POINT ( 'NONE', #100 ) ;
#77 = LINE ( 'NONE', #237, #501 ) ;
#78 = ORIENTED_EDGE ( 'NONE', *, *, #236, .F. ) ;
#79 = CC_DESIGN_PERSON_AND_ORGANIZATION_ASSIGNMENT ( #533, #396, ( #309 ) ) ;
#80 = CARTESIAN_POINT ( 'NONE',  ( 53.50000000000000000, 3.000000000000001332, -6.500000000000000888 ) ) ;
#81 = VERTEX_POINT ( 'NONE', #259 ) ;
#82 = PERSON_AND_ORGANIZATION_ROLE ( 'classification_officer' ) ;
#83 = CYLINDRICAL_SURFACE ( 'NONE', #409, 1.249999999999994227 ) ;
#84 = LOCAL_TIME ( 15, 59, 34.00000000000000000, #33 ) ;
#85 = ORIENTED_EDGE ( 'NONE', *, *, #406, .T. ) ;
#86 = CYLINDRICAL_SURFACE ( 'NONE', #356, 1.249999999999994227 ) ;
#87 = ORIENTED_EDGE ( 'NONE', *, *, #523, .T. ) ;
#88 = CYLINDRICAL_SURFACE ( 'NONE', #4, 1.249999999999992450 ) ;
#89 = ORIENTED_EDGE ( 'NONE', *, *, #294, .T. ) ;
#90 = EDGE_CURVE ( 'NONE', #109, #525, #95, .T. ) ;
#91 = CARTESIAN_POINT ( 'NONE',  ( 80.00000000000000000, 0.000000000000000000, 0.000000000000000000 ) ) ;
#92 = AXIS2_PLACEMENT_3D ( 'NONE', #475, #273, #112 ) ;
#93 = EDGE_LOOP ( 'NONE', ( #85, #35, #487, #244 ) ) ;
#94 = CARTESIAN_POINT ( 'NONE',  ( 26.50000000000000000, 0.000000000000000000, -6.500000000000000888 ) ) ;
#95 = LINE ( 'NONE', #419, #300 ) ;
#96 = PRODUCT_RELATED_PRODUCT_CATEGORY ( 'detail', '', ( #499 ) ) ;
#97 = CARTESIAN_POINT ( 'NONE',  ( 53.50000000000000000, 3.000000000000000000, -7.749999999999994671 ) ) ;
#98 = VERTEX_POINT ( 'NONE', #217 ) ;
#99 = DIRECTION ( 'NONE',  ( -0.000000000000000000, -1.000000000000000000, -0.000000000000000000 ) ) ;
#100 = CARTESIAN_POINT ( 'NONE',  ( 53.50000000000000000, 3.000000000000001332, -7.749999999999987566 ) ) ;
#101 = CLOSED_SHELL ( 'NONE', ( #353, #164, #111, #338, #332, #154, #262, #218, #242, #274, #367, #427, #316, #495 ) ) ;
#102 = CIRCLE ( 'NONE', #179, 1.249999999999987121 ) ;
#103 = DIRECTION ( 'NONE',  ( -0.000000000000000000, 1.000000000000000000, -0.000000000000000000 ) ) ;
#104 = EDGE_LOOP ( 'NONE', ( #225, #127, #315, #78 ) ) ;
#105 = CARTESIAN_POINT ( 'NONE',  ( 53.50000000000000000, 0.000000000000000000, -46.50000000000000000 ) ) ;
#106 = CARTESIAN_POINT ( 'NONE',  ( 26.50000000000000000, 3.000000000000001332, -7.749999999999987566 ) ) ;
#107 = VECTOR ( 'NONE', #473, 1000.000000000000000 ) ;
#108 = FACE_OUTER_BOUND ( 'NONE', #71, .T. ) ;
#109 = VERTEX_POINT ( 'NONE', #376 ) ;
#110 = CARTESIAN_POINT ( 'NONE',  ( 53.50000000000000000, 0.000000000000000000, -45.25000000000000711 ) ) ;
#111 = ADVANCED_FACE ( 'NONE', ( #21 ), #140, .F. ) ;
#112 = DIRECTION ( 'NONE',  ( 0.000000000000000000, -0.000000000000000000, -1.000000000000000000 ) ) ;
#113 = ORIENTED_EDGE ( 'NONE', *, *, #488, .T. ) ;
#114 = LINE ( 'NONE', #29, #464 ) ;
#115 = AXIS2_PLACEMENT_3D ( 'NONE', #44, #48, #290 ) ;
#116 = APPROVAL_PERSON_ORGANIZATION ( #433, #118, #519 ) ;
#117 = PLANE ( 'NONE',  #92 ) ;
#118 = APPROVAL ( #485, 'UNSPECIFIED' ) ;
#119 = APPROVAL_DATE_TIME ( #31, #183 ) ;
#120 = CARTESIAN_POINT ( 'NONE',  ( 26.50000000000000000, 0.000000000000000000, -46.50000000000000000 ) ) ;
#121 = ORIENTED_EDGE ( 'NONE', *, *, #70, .F. ) ;
#122 = APPROVAL_DATE_TIME ( #232, #384 ) ;
#123 = DIRECTION ( 'NONE',  ( 0.000000000000000000, 0.000000000000000000, 1.000000000000000000 ) ) ;
#124 = VERTEX_POINT ( 'NONE', #302 ) ;
#125 = DIRECTION ( 'NONE',  ( -0.000000000000000000, 1.000000000000000000, -0.000000000000000000 ) ) ;
#126 = CC_DESIGN_SECURITY_CLASSIFICATION ( #222, ( #309 ) ) ;
#127 = ORIENTED_EDGE ( 'NONE', *, *, #258, .F. ) ;
#128 = EDGE_CURVE ( 'NONE', #158, #184, #468, .T. ) ;
#129 = FACE_BOUND ( 'NONE', #275, .T. ) ;
#130 = EDGE_LOOP ( 'NONE', ( #529, #345 ) ) ;
#131 = DIRECTION ( 'NONE',  ( 0.000000000000000000, -1.000000000000000000, 0.000000000000000000 ) ) ;
#132 = ORIENTED_EDGE ( 'NONE', *, *, #449, .F. ) ;
#133 = LINE ( 'NONE', #226, #308 ) ;
#134 = CIRCLE ( 'NONE', #195, 1.249999999999992450 ) ;
#135 = DIRECTION ( 'NONE',  ( -0.000000000000000000, 1.000000000000000000, -0.000000000000000000 ) ) ;
#136 = CC_DESIGN_PERSON_AND_ORGANIZATION_ASSIGNMENT ( #152, #82, ( #222 ) ) ;
#137 = ORIENTED_EDGE ( 'NONE', *, *, #20, .T. ) ;
#138 = PERSON_AND_ORGANIZATION_ROLE ( 'design_owner' ) ;
#139 = LINE ( 'NONE', #220, #73 ) ;
#140 = CYLINDRICAL_SURFACE ( 'NONE', #478, 1.249999999999994227 ) ;
#141 = AXIS2_PLACEMENT_3D ( 'NONE', #351, #520, #146 ) ;
#142 = AXIS2_PLACEMENT_3D ( 'NONE', #430, #474, #382 ) ;
#143 = EDGE_CURVE ( 'NONE', #506, #45, #389, .T. ) ;
#144 = LINE ( 'NONE', #214, #423 ) ;
#145 = DIRECTION ( 'NONE',  ( -0.000000000000000000, 1.000000000000000000, -0.000000000000000000 ) ) ;
#146 = DIRECTION ( 'NONE',  ( 1.000000000000000000, 0.000000000000000000, -0.000000000000000000 ) ) ;
#147 = VECTOR ( 'NONE', #99, 1000.000000000000000 ) ;
#148 = CC_DESIGN_PERSON_AND_ORGANIZATION_ASSIGNMENT ( #333, #138, ( #499 ) ) ;
#149 = DIRECTION ( 'NONE',  ( -0.000000000000000000, 1.000000000000000000, -0.000000000000000000 ) ) ;
#150 = DIRECTION ( 'NONE',  ( 0.000000000000000000, 0.000000000000000000, -1.000000000000000000 ) ) ;
#151 = ORIENTED_EDGE ( 'NONE', *, *, #437, .T. ) ;
#152 = PERSON_AND_ORGANIZATION ( #439, #448 ) ;
#153 = CARTESIAN_POINT ( 'NONE',  ( 0.000000000000000000, 3.000000000000000000, 0.000000000000000000 ) ) ;
#154 = ADVANCED_FACE ( 'NONE', ( #469 ), #373, .F. ) ;
#155 = DIRECTION ( 'NONE',  ( 0.000000000000000000, 0.000000000000000000, 1.000000000000000000 ) ) ;
#156 = APPROVAL_ROLE ( '' ) ;
#157 = CYLINDRICAL_SURFACE ( 'NONE', #213, 1.249999999999994227 ) ;
#158 = VERTEX_POINT ( 'NONE', #174 ) ;
#159 = DIRECTION ( 'NONE',  ( 0.000000000000000000, 0.000000000000000000, -1.000000000000000000 ) ) ;
#160 = ORIENTED_EDGE ( 'NONE', *, *, #143, .T. ) ;
#161 = SECURITY_CLASSIFICATION_LEVEL ( 'unclassified' ) ;
#162 = DIRECTION ( 'NONE',  ( -0.000000000000000000, 1.000000000000000000, -0.000000000000000000 ) ) ;
#163 = ORIENTED_EDGE ( 'NONE', *, *, #393, .T. ) ;
#164 = ADVANCED_FACE ( 'NONE', ( #394 ), #348, .F. ) ;
#165 = VECTOR ( 'NONE', #528, 1000.000000000000000 ) ;
#166 = DIRECTION ( 'NONE',  ( -0.000000000000000000, 1.000000000000000000, -0.000000000000000000 ) ) ;
#167 = EDGE_LOOP ( 'NONE', ( #121, #89, #47, #531 ) ) ;
#168 = CARTESIAN_POINT ( 'NONE',  ( 26.50000000000000000, 3.000000000000000000, -6.500000000000000888 ) ) ;
#169 = VERTEX_POINT ( 'NONE', #264 ) ;
#170 = EDGE_CURVE ( 'NONE', #203, #235, #114, .T. ) ;
#171 = ORIENTED_EDGE ( 'NONE', *, *, #481, .F. ) ;
#172 = PRODUCT_DEFINITION_SHAPE ( 'NONE', 'NONE',  #513 ) ;
#173 = AXIS2_PLACEMENT_3D ( 'NONE', #411, #125, #288 ) ;
#174 = CARTESIAN_POINT ( 'NONE',  ( 80.00000000000000000, 3.000000000000000000, -53.10000000000000142 ) ) ;
#175 = ORIENTED_EDGE ( 'NONE', *, *, #170, .F. ) ;
#176 = CARTESIAN_POINT ( 'NONE',  ( 53.50000000000000000, 3.000000000000001332, -6.500000000000000888 ) ) ;
#177 = CARTESIAN_POINT ( 'NONE',  ( 26.50000000000000000, 3.000000000000000000, -47.74999999999999289 ) ) ;
#178 = DIRECTION ( 'NONE',  ( 0.000000000000000000, 0.000000000000000000, 1.000000000000000000 ) ) ;
#179 = AXIS2_PLACEMENT_3D ( 'NONE', #368, #483, #6 ) ;
#180 = CARTESIAN_POINT ( 'NONE',  ( 0.000000000000000000, 3.000000000000000000, 0.000000000000000000 ) ) ;
#181 = DESIGN_CONTEXT ( 'detailed design', #418, 'design' ) ;
#182 = DIRECTION ( 'NONE',  ( -0.000000000000000000, -1.000000000000000000, -0.000000000000000000 ) ) ;
#183 = APPROVAL ( #277, 'UNSPECIFIED' ) ;
#184 = VERTEX_POINT ( 'NONE', #476 ) ;
#185 = DIRECTION ( 'NONE',  ( 0.000000000000000000, 0.000000000000000000, -1.000000000000000000 ) ) ;
#186 = DIRECTION ( 'NONE',  ( 0.000000000000000000, 0.000000000000000000, 1.000000000000000000 ) ) ;
#187 = ORIENTED_EDGE ( 'NONE', *, *, #481, .T. ) ;
#188 = VECTOR ( 'NONE', #182, 1000.000000000000000 ) ;
#189 = DATE_TIME_ROLE ( 'creation_date' ) ;
#190 = PLANE ( 'NONE',  #250 ) ;
#191 = COORDINATED_UNIVERSAL_TIME_OFFSET ( 1, 0, .AHEAD. ) ;
#192 = CARTESIAN_POINT ( 'NONE',  ( 26.50000000000000000, 0.000000000000000000, -45.25000000000000711 ) ) ;
#193 = CARTESIAN_POINT ( 'NONE',  ( 26.50000000000000000, 3.000000000000001332, -46.50000000000000000 ) ) ;
#194 = EDGE_LOOP ( 'NONE', ( #453, #87, #187, #132 ) ) ;
#195 = AXIS2_PLACEMENT_3D ( 'NONE', #209, #328, #66 ) ;
#196 = CARTESIAN_POINT ( 'NONE',  ( 53.50000000000000000, 3.000000000000000000, -6.500000000000000888 ) ) ;
#197 = VERTEX_POINT ( 'NONE', #431 ) ;
#198 = PERSON_AND_ORGANIZATION_ROLE ( 'creator' ) ;
#199 = CARTESIAN_POINT ( 'NONE',  ( 53.50000000000000000, 3.000000000000000000, -6.500000000000000888 ) ) ;
#200 = ORIENTED_EDGE ( 'NONE', *, *, #304, .F. ) ;
#201 = EDGE_CURVE ( 'NONE', #525, #197, #391, .T. ) ;
#202 = CARTESIAN_POINT ( 'NONE',  ( 26.50000000000000000, 3.000000000000001332, -5.250000000000013323 ) ) ;
#203 = VERTEX_POINT ( 'NONE', #67 ) ;
#204 = AXIS2_PLACEMENT_3D ( 'NONE', #80, #251, #489 ) ;
#205 = CIRCLE ( 'NONE', #357, 1.249999999999987121 ) ;
#206 = DIRECTION ( 'NONE',  ( -0.000000000000000000, 1.000000000000000000, -0.000000000000000000 ) ) ;
#207 = VERTEX_POINT ( 'NONE', #65 ) ;
#208 = CC_DESIGN_DATE_AND_TIME_ASSIGNMENT ( #526, #189, ( #513 ) ) ;
#209 = CARTESIAN_POINT ( 'NONE',  ( 26.50000000000000000, 0.000000000000000000, -6.500000000000000888 ) ) ;
#210 = ORIENTED_EDGE ( 'NONE', *, *, #57, .F. ) ;
#211 = ORIENTED_EDGE ( 'NONE', *, *, #236, .T. ) ;
#212 = DIRECTION ( 'NONE',  ( 0.000000000000000000, 0.000000000000000000, 1.000000000000000000 ) ) ;
#213 = AXIS2_PLACEMENT_3D ( 'NONE', #402, #323, #492 ) ;
#214 = CARTESIAN_POINT ( 'NONE',  ( 26.50000000000000000, 3.000000000000000000, -5.250000000000007994 ) ) ;
#215 = ADVANCED_BREP_SHAPE_REPRESENTATION ( 'heatsink_cover', ( #278, #465 ), #28 ) ;
#216 =( NAMED_UNIT ( * ) PLANE_ANGLE_UNIT ( ) SI_UNIT ( $, .RADIAN. ) );
#217 = CARTESIAN_POINT ( 'NONE',  ( 26.50000000000000000, 0.000000000000000000, -5.250000000000007994 ) ) ;
#218 = ADVANCED_FACE ( 'NONE', ( #227 ), #190, .F. ) ;
#219 = EDGE_LOOP ( 'NONE', ( #395, #403, #50, #349 ) ) ;
#220 = CARTESIAN_POINT ( 'NONE',  ( 80.00000000000000000, 3.000000000000000000, 0.000000000000000000 ) ) ;
#221 = AXIS2_PLACEMENT_3D ( 'NONE', #120, #131, #46 ) ;
#222 = SECURITY_CLASSIFICATION ( '', '', #161 ) ;
#223 = CC_DESIGN_PERSON_AND_ORGANIZATION_ASSIGNMENT ( #352, #440, ( #309 ) ) ;
#224 = CARTESIAN_POINT ( 'NONE',  ( 0.000000000000000000, 0.000000000000000000, 0.000000000000000000 ) ) ;
#225 = ORIENTED_EDGE ( 'NONE', *, *, #52, .F. ) ;
#226 = CARTESIAN_POINT ( 'NONE',  ( 53.50000000000000000, 3.000000000000000000, -47.74999999999999289 ) ) ;
#227 = FACE_OUTER_BOUND ( 'NONE', #484, .T. ) ;
#228 = EDGE_LOOP ( 'NONE', ( #252, #496 ) ) ;
#229 = LINE ( 'NONE', #224, #276 ) ;
#230 = VERTEX_POINT ( 'NONE', #69 ) ;
#231 = CIRCLE ( 'NONE', #322, 1.249999999999994227 ) ;
#232 = DATE_AND_TIME ( #240, #502 ) ;
#233 = CC_DESIGN_APPROVAL ( #183, ( #222 ) ) ;
#234 = DIRECTION ( 'NONE',  ( 0.000000000000000000, -1.000000000000000000, 0.000000000000000000 ) ) ;
#235 = VERTEX_POINT ( 'NONE', #106 ) ;
#236 = EDGE_CURVE ( 'NONE', #124, #81, #229, .T. ) ;
#237 = CARTESIAN_POINT ( 'NONE',  ( 0.000000000000000000, 3.000000000000000000, -53.10000000000000142 ) ) ;
#238 = FACE_OUTER_BOUND ( 'NONE', #362, .T. ) ;
#239 = VERTEX_POINT ( 'NONE', #192 ) ;
#240 = CALENDAR_DATE ( 2022, 16, 2 ) ;
#241 = CIRCLE ( 'NONE', #12, 1.249999999999987121 ) ;
#242 = ADVANCED_FACE ( 'NONE', ( #271 ), #22, .F. ) ;
#243 = FACE_OUTER_BOUND ( 'NONE', #293, .T. ) ;
#244 = ORIENTED_EDGE ( 'NONE', *, *, #325, .F. ) ;
#245 = CARTESIAN_POINT ( 'NONE',  ( 53.50000000000000000, 3.000000000000000000, -46.50000000000000000 ) ) ;
#246 = ORIENTED_EDGE ( 'NONE', *, *, #249, .F. ) ;
#247 = DIRECTION ( 'NONE',  ( -0.000000000000000000, 1.000000000000000000, -0.000000000000000000 ) ) ;
#248 = VERTEX_POINT ( 'NONE', #313 ) ;
#249 = EDGE_CURVE ( 'NONE', #109, #23, #279, .T. ) ;
#250 = AXIS2_PLACEMENT_3D ( 'NONE', #75, #470, #155 ) ;
#251 = DIRECTION ( 'NONE',  ( -0.000000000000000000, 1.000000000000000000, -0.000000000000000000 ) ) ;
#252 = ORIENTED_EDGE ( 'NONE', *, *, #532, .F. ) ;
#253 = CARTESIAN_POINT ( 'NONE',  ( 0.000000000000000000, 3.000000000000000000, 0.000000000000000000 ) ) ;
#254 = DIRECTION ( 'NONE',  ( -0.000000000000000000, 1.000000000000000000, -0.000000000000000000 ) ) ;
#255 = CARTESIAN_POINT ( 'NONE',  ( 26.50000000000000000, 3.000000000000000000, -6.500000000000000888 ) ) ;
#256 = DIRECTION ( 'NONE',  ( 0.000000000000000000, 0.000000000000000000, -1.000000000000000000 ) ) ;
#257 = DIRECTION ( 'NONE',  ( 0.000000000000000000, 0.000000000000000000, 1.000000000000000000 ) ) ;
#258 = EDGE_CURVE ( 'NONE', #184, #23, #343, .T. ) ;
#259 = CARTESIAN_POINT ( 'NONE',  ( 80.00000000000000000, 0.000000000000000000, 0.000000000000000000 ) ) ;
#260 = ORIENTED_EDGE ( 'NONE', *, *, #90, .T. ) ;
#261 = DIRECTION ( 'NONE',  ( -0.000000000000000000, -0.000000000000000000, 1.000000000000000000 ) ) ;
#262 = ADVANCED_FACE ( 'NONE', ( #108 ), #518, .F. ) ;
#263 = VECTOR ( 'NONE', #14, 1000.000000000000000 ) ;
#264 = CARTESIAN_POINT ( 'NONE',  ( 53.50000000000000000, 0.000000000000000000, -47.74999999999999289 ) ) ;
#265 = CIRCLE ( 'NONE', #472, 1.249999999999992450 ) ;
#266 = CC_DESIGN_APPROVAL ( #118, ( #309 ) ) ;
#267 = DIRECTION ( 'NONE',  ( -0.000000000000000000, 1.000000000000000000, -0.000000000000000000 ) ) ;
#268 = CARTESIAN_POINT ( 'NONE',  ( 0.000000000000000000, 0.000000000000000000, -53.10000000000000142 ) ) ;
#269 = ORIENTED_EDGE ( 'NONE', *, *, #201, .T. ) ;
#270 = LINE ( 'NONE', #458, #64 ) ;
#271 = FACE_OUTER_BOUND ( 'NONE', #490, .T. ) ;
#272 = EDGE_LOOP ( 'NONE', ( #369, #210 ) ) ;
#273 = DIRECTION ( 'NONE',  ( 0.000000000000000000, -1.000000000000000000, 0.000000000000000000 ) ) ;
#274 = ADVANCED_FACE ( 'NONE', ( #512, #383, #479, #307, #341 ), #117, .T. ) ;
#275 = EDGE_LOOP ( 'NONE', ( #296, #321 ) ) ;
#276 = VECTOR ( 'NONE', #524, 1000.000000000000000 ) ;
#277 = APPROVAL_STATUS ( 'not_yet_approved' ) ;
#278 = MANIFOLD_SOLID_BREP ( 'M3 Gewindebohrung2', #101 ) ;
#279 = LINE ( 'NONE', #514, #188 ) ;
#280 = ORIENTED_EDGE ( 'NONE', *, *, #467, .T. ) ;
#281 = FACE_BOUND ( 'NONE', #324, .T. ) ;
#282 = EDGE_LOOP ( 'NONE', ( #511, #171 ) ) ;
#283 = COORDINATED_UNIVERSAL_TIME_OFFSET ( 1, 0, .AHEAD. ) ;
#284 = EDGE_CURVE ( 'NONE', #158, #109, #77, .T. ) ;
#285 = FACE_OUTER_BOUND ( 'NONE', #194, .T. ) ;
#286 = ORIENTED_EDGE ( 'NONE', *, *, #57, .T. ) ;
#287 = AXIS2_PLACEMENT_3D ( 'NONE', #1, #162, #450 ) ;
#288 = DIRECTION ( 'NONE',  ( 0.000000000000000000, 0.000000000000000000, 1.000000000000000000 ) ) ;
#289 = ORIENTED_EDGE ( 'NONE', *, *, #30, .F. ) ;
#290 = DIRECTION ( 'NONE',  ( 0.000000000000000000, -0.000000000000000000, -1.000000000000000000 ) ) ;
#291 = ORIENTED_EDGE ( 'NONE', *, *, #128, .F. ) ;
#292 = FACE_BOUND ( 'NONE', #228, .T. ) ;
#293 = EDGE_LOOP ( 'NONE', ( #260, #269, #54, #405 ) ) ;
#294 = EDGE_CURVE ( 'NONE', #207, #239, #231, .T. ) ;
#295 = CARTESIAN_POINT ( 'NONE',  ( 53.50000000000000000, 3.000000000000000000, -46.50000000000000000 ) ) ;
#296 = ORIENTED_EDGE ( 'NONE', *, *, #143, .F. ) ;
#297 = EDGE_CURVE ( 'NONE', #446, #506, #461, .T. ) ;
#298 = CARTESIAN_POINT ( 'NONE',  ( 26.50000000000000000, 3.000000000000001332, -6.500000000000000888 ) ) ;
#299 = CARTESIAN_POINT ( 'NONE',  ( 0.000000000000000000, 3.000000000000000000, 0.000000000000000000 ) ) ;
#300 = VECTOR ( 'NONE', #261, 1000.000000000000000 ) ;
#301 = APPROVAL_STATUS ( 'not_yet_approved' ) ;
#302 = CARTESIAN_POINT ( 'NONE',  ( 0.000000000000000000, 0.000000000000000000, 0.000000000000000000 ) ) ;
#303 = DIRECTION ( 'NONE',  ( 0.000000000000000000, 0.000000000000000000, 1.000000000000000000 ) ) ;
#304 = EDGE_CURVE ( 'NONE', #436, #248, #19, .T. ) ;
#305 = DIRECTION ( 'NONE',  ( 0.000000000000000000, 0.000000000000000000, 1.000000000000000000 ) ) ;
#306 = VECTOR ( 'NONE', #17, 1000.000000000000000 ) ;
#307 = FACE_BOUND ( 'NONE', #68, .T. ) ;
#308 = VECTOR ( 'NONE', #505, 1000.000000000000000 ) ;
#309 = PRODUCT_DEFINITION_FORMATION_WITH_SPECIFIED_SOURCE ( 'ANY', '', #499, .NOT_KNOWN. ) ;
#310 =( NAMED_UNIT ( * ) SI_UNIT ( $, .STERADIAN. ) SOLID_ANGLE_UNIT ( ) );
#311 = CARTESIAN_POINT ( 'NONE',  ( 53.50000000000000000, 3.000000000000000000, -45.25000000000000711 ) ) ;
#312 = DIRECTION ( 'NONE',  ( -1.000000000000000000, 0.000000000000000000, -0.000000000000000000 ) ) ;
#313 = CARTESIAN_POINT ( 'NONE',  ( 26.50000000000000000, 3.000000000000001332, -47.74999999999998579 ) ) ;
#314 = CARTESIAN_POINT ( 'NONE',  ( 26.50000000000000000, 3.000000000000000000, -45.25000000000000711 ) ) ;
#315 = ORIENTED_EDGE ( 'NONE', *, *, #393, .F. ) ;
#316 = ADVANCED_FACE ( 'NONE', ( #326 ), #157, .F. ) ;
#317 = FACE_OUTER_BOUND ( 'NONE', #2, .T. ) ;
#318 = EDGE_LOOP ( 'NONE', ( #451, #289, #521, #399 ) ) ;
#319 = SHAPE_DEFINITION_REPRESENTATION ( #172, #215 ) ;
#320 = CARTESIAN_POINT ( 'NONE',  ( 53.50000000000000000, 3.000000000000001332, -5.250000000000013323 ) ) ;
#321 = ORIENTED_EDGE ( 'NONE', *, *, #378, .F. ) ;
#322 = AXIS2_PLACEMENT_3D ( 'NONE', #34, #234, #150 ) ;
#323 = DIRECTION ( 'NONE',  ( -0.000000000000000000, 1.000000000000000000, -0.000000000000000000 ) ) ;
#324 = EDGE_LOOP ( 'NONE', ( #200, #58 ) ) ;
#325 = EDGE_CURVE ( 'NONE', #239, #436, #444, .T. ) ;
#326 = FACE_OUTER_BOUND ( 'NONE', #167, .T. ) ;
#327 = ORIENTED_EDGE ( 'NONE', *, *, #437, .F. ) ;
#328 = DIRECTION ( 'NONE',  ( 0.000000000000000000, -1.000000000000000000, 0.000000000000000000 ) ) ;
#329 = EDGE_LOOP ( 'NONE', ( #175, #280, #137, #414 ) ) ;
#330 = AXIS2_PLACEMENT_3D ( 'NONE', #196, #247, #361 ) ;
#331 = VERTEX_POINT ( 'NONE', #202 ) ;
#332 = ADVANCED_FACE ( 'NONE', ( #292, #441, #243, #129, #281 ), #40, .F. ) ;
#333 = PERSON_AND_ORGANIZATION ( #439, #448 ) ;
#334 = DIRECTION ( 'NONE',  ( 0.000000000000000000, 0.000000000000000000, -1.000000000000000000 ) ) ;
#335 = DIRECTION ( 'NONE',  ( -0.000000000000000000, 1.000000000000000000, -0.000000000000000000 ) ) ;
#336 = DIRECTION ( 'NONE',  ( 0.000000000000000000, -1.000000000000000000, 0.000000000000000000 ) ) ;
#337 = VECTOR ( 'NONE', #435, 1000.000000000000000 ) ;
#338 = ADVANCED_FACE ( 'NONE', ( #285 ), #452, .F. ) ;
#339 = CARTESIAN_POINT ( 'NONE',  ( 0.000000000000000000, 0.000000000000000000, 0.000000000000000000 ) ) ;
#340 = DIRECTION ( 'NONE',  ( 1.000000000000000000, -0.000000000000000000, 0.000000000000000000 ) ) ;
#341 = FACE_OUTER_BOUND ( 'NONE', #104, .T. ) ;
#342 = FACE_OUTER_BOUND ( 'NONE', #329, .T. ) ;
#343 = LINE ( 'NONE', #268, #107 ) ;
#344 = AXIS2_PLACEMENT_3D ( 'NONE', #105, #336, #334 ) ;
#345 = ORIENTED_EDGE ( 'NONE', *, *, #294, .F. ) ;
#346 = EDGE_CURVE ( 'NONE', #446, #169, #424, .T. ) ;
#347 = PERSON_AND_ORGANIZATION ( #439, #448 ) ;
#348 = CYLINDRICAL_SURFACE ( 'NONE', #517, 1.249999999999994227 ) ;
#349 = ORIENTED_EDGE ( 'NONE', *, *, #413, .T. ) ;
#350 = DATE_TIME_ROLE ( 'classification_date' ) ;
#351 = CARTESIAN_POINT ( 'NONE',  ( 0.000000000000000000, 3.000000000000000000, -53.10000000000000142 ) ) ;
#352 = PERSON_AND_ORGANIZATION ( #439, #448 ) ;
#353 = ADVANCED_FACE ( 'NONE', ( #317 ), #88, .F. ) ;
#354 = CARTESIAN_POINT ( 'NONE',  ( 26.50000000000000000, 3.000000000000001332, -45.25000000000001421 ) ) ;
#355 = ORIENTED_EDGE ( 'NONE', *, *, #378, .T. ) ;
#356 = AXIS2_PLACEMENT_3D ( 'NONE', #245, #397, #53 ) ;
#357 = AXIS2_PLACEMENT_3D ( 'NONE', #298, #149, #212 ) ;
#358 = DIRECTION ( 'NONE',  ( 0.000000000000000000, -1.000000000000000000, 0.000000000000000000 ) ) ;
#359 = ORIENTED_EDGE ( 'NONE', *, *, #39, .F. ) ;
#360 = APPROVAL_DATE_TIME ( #401, #118 ) ;
#361 = DIRECTION ( 'NONE',  ( 0.000000000000000000, 0.000000000000000000, 1.000000000000000000 ) ) ;
#362 = EDGE_LOOP ( 'NONE', ( #442, #286, #371, #160 ) ) ;
#363 = LINE ( 'NONE', #3, #147 ) ;
#364 = ORIENTED_EDGE ( 'NONE', *, *, #507, .F. ) ;
#365 = AXIS2_PLACEMENT_3D ( 'NONE', #180, #340, #11 ) ;
#366 = APPROVAL_PERSON_ORGANIZATION ( #16, #384, #466 ) ;
#367 = ADVANCED_FACE ( 'NONE', ( #494 ), #83, .F. ) ;
#368 = CARTESIAN_POINT ( 'NONE',  ( 53.50000000000000000, 3.000000000000001332, -46.50000000000000000 ) ) ;
#369 = ORIENTED_EDGE ( 'NONE', *, *, #346, .F. ) ;
#370 = DIRECTION ( 'NONE',  ( -0.000000000000000000, 1.000000000000000000, -0.000000000000000000 ) ) ;
#371 = ORIENTED_EDGE ( 'NONE', *, *, #297, .T. ) ;
#372 = EDGE_CURVE ( 'NONE', #248, #436, #27, .T. ) ;
#373 = PLANE ( 'NONE',  #365 ) ;
#374 = CIRCLE ( 'NONE', #142, 1.249999999999994227 ) ;
#375 = ORIENTED_EDGE ( 'NONE', *, *, #258, .T. ) ;
#376 = CARTESIAN_POINT ( 'NONE',  ( 0.000000000000000000, 3.000000000000000000, -53.10000000000000142 ) ) ;
#377 = CARTESIAN_POINT ( 'NONE',  ( 53.50000000000000000, 3.000000000000001332, -46.50000000000000000 ) ) ;
#378 = EDGE_CURVE ( 'NONE', #45, #506, #102, .T. ) ;
#379 = VECTOR ( 'NONE', #166, 1000.000000000000000 ) ;
#380 = DIRECTION ( 'NONE',  ( 0.000000000000000000, 0.000000000000000000, -1.000000000000000000 ) ) ;
#381 = DIRECTION ( 'NONE',  ( -0.000000000000000000, 1.000000000000000000, -0.000000000000000000 ) ) ;
#382 = DIRECTION ( 'NONE',  ( 0.000000000000000000, 0.000000000000000000, -1.000000000000000000 ) ) ;
#383 = FACE_BOUND ( 'NONE', #130, .T. ) ;
#384 = APPROVAL ( #301, 'UNSPECIFIED' ) ;
#385 = ORIENTED_EDGE ( 'NONE', *, *, #128, .T. ) ;
#386 = APPLICATION_CONTEXT ( 'configuration controlled 3d designs of mechanical parts and assemblies' ) ;
#387 = AXIS2_PLACEMENT_3D ( 'NONE', #193, #145, #305 ) ;
#388 = DIRECTION ( 'NONE',  ( -0.000000000000000000, 1.000000000000000000, -0.000000000000000000 ) ) ;
#389 = CIRCLE ( 'NONE', #417, 1.249999999999987121 ) ;
#390 = CALENDAR_DATE ( 2022, 16, 2 ) ;
#391 = LINE ( 'NONE', #425, #400 ) ;
#392 = DATE_AND_TIME ( #390, #457 ) ;
#393 = EDGE_CURVE ( 'NONE', #81, #184, #454, .T. ) ;
#394 = FACE_OUTER_BOUND ( 'NONE', #93, .T. ) ;
#395 = ORIENTED_EDGE ( 'NONE', *, *, #523, .F. ) ;
#396 = PERSON_AND_ORGANIZATION_ROLE ( 'creator' ) ;
#397 = DIRECTION ( 'NONE',  ( -0.000000000000000000, 1.000000000000000000, -0.000000000000000000 ) ) ;
#398 = AXIS2_PLACEMENT_3D ( 'NONE', #55, #60, #256 ) ;
#399 = ORIENTED_EDGE ( 'NONE', *, *, #249, .T. ) ;
#400 = VECTOR ( 'NONE', #32, 1000.000000000000000 ) ;
#401 = DATE_AND_TIME ( #43, #480 ) ;
#402 = CARTESIAN_POINT ( 'NONE',  ( 26.50000000000000000, 3.000000000000000000, -46.50000000000000000 ) ) ;
#403 = ORIENTED_EDGE ( 'NONE', *, *, #39, .T. ) ;
#404 = CARTESIAN_POINT ( 'NONE',  ( 53.50000000000000000, 0.000000000000000000, -5.250000000000006217 ) ) ;
#405 = ORIENTED_EDGE ( 'NONE', *, *, #284, .T. ) ;
#406 = EDGE_CURVE ( 'NONE', #239, #207, #434, .T. ) ;
#407 = DIRECTION ( 'NONE',  ( 0.000000000000000000, 0.000000000000000000, 1.000000000000000000 ) ) ;
#408 = VERTEX_POINT ( 'NONE', #320 ) ;
#409 = AXIS2_PLACEMENT_3D ( 'NONE', #199, #206, #407 ) ;
#410 = APPROVAL_PERSON_ORGANIZATION ( #443, #183, #156 ) ;
#411 = CARTESIAN_POINT ( 'NONE',  ( 26.50000000000000000, 3.000000000000001332, -6.500000000000000888 ) ) ;
#412 = ORIENTED_EDGE ( 'NONE', *, *, #467, .F. ) ;
#413 = EDGE_CURVE ( 'NONE', #408, #76, #447, .T. ) ;
#414 = ORIENTED_EDGE ( 'NONE', *, *, #532, .T. ) ;
#415 = DIRECTION ( 'NONE',  ( 1.000000000000000000, 0.000000000000000000, 0.000000000000000000 ) ) ;
#416 = LINE ( 'NONE', #299, #263 ) ;
#417 = AXIS2_PLACEMENT_3D ( 'NONE', #377, #18, #178 ) ;
#418 = APPLICATION_CONTEXT ( 'configuration controlled 3d designs of mechanical parts and assemblies' ) ;
#419 = CARTESIAN_POINT ( 'NONE',  ( 0.000000000000000000, 3.000000000000000000, 0.000000000000000000 ) ) ;
#420 = CARTESIAN_POINT ( 'NONE',  ( 80.00000000000000000, 3.000000000000000000, -53.10000000000000142 ) ) ;
#421 = EDGE_CURVE ( 'NONE', #235, #331, #510, .T. ) ;
#422 = DIRECTION ( 'NONE',  ( -0.000000000000000000, 1.000000000000000000, -0.000000000000000000 ) ) ;
#423 = VECTOR ( 'NONE', #422, 1000.000000000000000 ) ;
#424 = CIRCLE ( 'NONE', #491, 1.249999999999994227 ) ;
#425 = CARTESIAN_POINT ( 'NONE',  ( 0.000000000000000000, 3.000000000000000000, 0.000000000000000000 ) ) ;
#426 = COORDINATED_UNIVERSAL_TIME_OFFSET ( 1, 0, .AHEAD. ) ;
#427 = ADVANCED_FACE ( 'NONE', ( #238 ), #86, .F. ) ;
#428 = CARTESIAN_POINT ( 'NONE',  ( 26.50000000000000000, 3.000000000000000000, -46.50000000000000000 ) ) ;
#429 = ORIENTED_EDGE ( 'NONE', *, *, #201, .F. ) ;
#430 = CARTESIAN_POINT ( 'NONE',  ( 53.50000000000000000, 0.000000000000000000, -6.500000000000000888 ) ) ;
#431 = CARTESIAN_POINT ( 'NONE',  ( 80.00000000000000000, 3.000000000000000000, 0.000000000000000000 ) ) ;
#432 = VERTEX_POINT ( 'NONE', #404 ) ;
#433 = PERSON_AND_ORGANIZATION ( #439, #448 ) ;
#434 = CIRCLE ( 'NONE', #221, 1.249999999999994227 ) ;
#435 = DIRECTION ( 'NONE',  ( -0.000000000000000000, 1.000000000000000000, -0.000000000000000000 ) ) ;
#436 = VERTEX_POINT ( 'NONE', #354 ) ;
#437 = EDGE_CURVE ( 'NONE', #197, #81, #363, .T. ) ;
#438 = DIRECTION ( 'NONE',  ( 0.000000000000000000, 0.000000000000000000, -1.000000000000000000 ) ) ;
#439 = PERSON ( 'UNSPECIFIED', 'UNSPECIFIED', 'UNSPECIFIED', ('UNSPECIFIED'), ('UNSPECIFIED'), ('UNSPECIFIED') ) ;
#440 = PERSON_AND_ORGANIZATION_ROLE ( 'design_supplier' ) ;
#441 = FACE_BOUND ( 'NONE', #282, .T. ) ;
#442 = ORIENTED_EDGE ( 'NONE', *, *, #488, .F. ) ;
#443 = PERSON_AND_ORGANIZATION ( #439, #448 ) ;
#444 = LINE ( 'NONE', #314, #379 ) ;
#445 = CIRCLE ( 'NONE', #344, 1.249999999999994227 ) ;
#446 = VERTEX_POINT ( 'NONE', #110 ) ;
#447 = CIRCLE ( 'NONE', #204, 1.249999999999987121 ) ;
#448 = ORGANIZATION ( 'UNSPECIFIED', 'UNSPECIFIED', '' ) ;
#449 = EDGE_CURVE ( 'NONE', #432, #408, #270, .T. ) ;
#450 = DIRECTION ( 'NONE',  ( 0.000000000000000000, 0.000000000000000000, 1.000000000000000000 ) ) ;
#451 = ORIENTED_EDGE ( 'NONE', *, *, #52, .T. ) ;
#452 = CYLINDRICAL_SURFACE ( 'NONE', #330, 1.249999999999994227 ) ;
#453 = ORIENTED_EDGE ( 'NONE', *, *, #507, .T. ) ;
#454 = LINE ( 'NONE', #91, #165 ) ;
#455 = EDGE_LOOP ( 'NONE', ( #9, #113, #355, #493 ) ) ;
#456 = EDGE_CURVE ( 'NONE', #98, #203, #134, .T. ) ;
#457 = LOCAL_TIME ( 15, 59, 34.00000000000000000, #191 ) ;
#458 = CARTESIAN_POINT ( 'NONE',  ( 53.50000000000000000, 3.000000000000000000, -5.250000000000006217 ) ) ;
#459 = ORIENTED_EDGE ( 'NONE', *, *, #62, .F. ) ;
#460 = DIRECTION ( 'NONE',  ( 0.000000000000000000, -1.000000000000000000, 0.000000000000000000 ) ) ;
#461 = LINE ( 'NONE', #311, #337 ) ;
#462 = APPLICATION_PROTOCOL_DEFINITION ( 'international standard', 'config_control_design', 1994, #418 ) ;
#463 = LINE ( 'NONE', #177, #527 ) ;
#464 = VECTOR ( 'NONE', #381, 1000.000000000000000 ) ;
#465 = AXIS2_PLACEMENT_3D ( 'NONE', #13, #257, #415 ) ;
#466 = APPROVAL_ROLE ( '' ) ;
#467 = EDGE_CURVE ( 'NONE', #203, #98, #265, .T. ) ;
#468 = LINE ( 'NONE', #420, #49 ) ;
#469 = FACE_OUTER_BOUND ( 'NONE', #318, .T. ) ;
#470 = DIRECTION ( 'NONE',  ( -1.000000000000000000, 0.000000000000000000, 0.000000000000000000 ) ) ;
#471 = CC_DESIGN_DATE_AND_TIME_ASSIGNMENT ( #392, #350, ( #222 ) ) ;
#472 = AXIS2_PLACEMENT_3D ( 'NONE', #94, #460, #185 ) ;
#473 = DIRECTION ( 'NONE',  ( -1.000000000000000000, -0.000000000000000000, -0.000000000000000000 ) ) ;
#474 = DIRECTION ( 'NONE',  ( 0.000000000000000000, -1.000000000000000000, 0.000000000000000000 ) ) ;
#475 = CARTESIAN_POINT ( 'NONE',  ( 0.000000000000000000, 0.000000000000000000, 0.000000000000000000 ) ) ;
#476 = CARTESIAN_POINT ( 'NONE',  ( 80.00000000000000000, 0.000000000000000000, -53.10000000000000142 ) ) ;
#477 = ORIENTED_EDGE ( 'NONE', *, *, #30, .T. ) ;
#478 = AXIS2_PLACEMENT_3D ( 'NONE', #295, #254, #303 ) ;
#479 = FACE_BOUND ( 'NONE', #272, .T. ) ;
#480 = LOCAL_TIME ( 15, 59, 34.00000000000000000, #72 ) ;
#481 = EDGE_CURVE ( 'NONE', #76, #408, #241, .T. ) ;
#482 = ORIENTED_EDGE ( 'NONE', *, *, #20, .F. ) ;
#483 = DIRECTION ( 'NONE',  ( -0.000000000000000000, 1.000000000000000000, -0.000000000000000000 ) ) ;
#484 = EDGE_LOOP ( 'NONE', ( #163, #291, #459, #151 ) ) ;
#485 = APPROVAL_STATUS ( 'not_yet_approved' ) ;
#486 = DIRECTION ( 'NONE',  ( -0.000000000000000000, 1.000000000000000000, -0.000000000000000000 ) ) ;
#487 = ORIENTED_EDGE ( 'NONE', *, *, #372, .T. ) ;
#488 = EDGE_CURVE ( 'NONE', #169, #45, #133, .T. ) ;
#489 = DIRECTION ( 'NONE',  ( 0.000000000000000000, 0.000000000000000000, 1.000000000000000000 ) ) ;
#490 = EDGE_LOOP ( 'NONE', ( #375, #246, #7, #385 ) ) ;
#491 = AXIS2_PLACEMENT_3D ( 'NONE', #530, #358, #159 ) ;
#492 = DIRECTION ( 'NONE',  ( 0.000000000000000000, 0.000000000000000000, 1.000000000000000000 ) ) ;
#493 = ORIENTED_EDGE ( 'NONE', *, *, #297, .F. ) ;
#494 = FACE_OUTER_BOUND ( 'NONE', #219, .T. ) ;
#495 = ADVANCED_FACE ( 'NONE', ( #342 ), #8, .F. ) ;
#496 = ORIENTED_EDGE ( 'NONE', *, *, #421, .F. ) ;
#497 = UNCERTAINTY_MEASURE_WITH_UNIT (LENGTH_MEASURE( 1.000000000000000082E-05 ), #24, 'distance_accuracy_value', 'NONE');
#498 = DIRECTION ( 'NONE',  ( 0.000000000000000000, 0.000000000000000000, 1.000000000000000000 ) ) ;
#499 = PRODUCT ( 'heatsink_cover', 'heatsink_cover', '', ( #10 ) ) ;
#500 = ORIENTED_EDGE ( 'NONE', *, *, #170, .T. ) ;
#501 = VECTOR ( 'NONE', #25, 1000.000000000000000 ) ;
#502 = LOCAL_TIME ( 15, 59, 34.00000000000000000, #426 ) ;
#503 = CARTESIAN_POINT ( 'NONE',  ( 53.50000000000000000, 3.000000000000001332, -45.25000000000001421 ) ) ;
#504 = CARTESIAN_POINT ( 'NONE',  ( 53.50000000000000000, 3.000000000000001332, -47.74999999999998579 ) ) ;
#505 = DIRECTION ( 'NONE',  ( -0.000000000000000000, 1.000000000000000000, -0.000000000000000000 ) ) ;
#506 = VERTEX_POINT ( 'NONE', #503 ) ;
#507 = EDGE_CURVE ( 'NONE', #432, #230, #374, .T. ) ;
#508 = DIRECTION ( 'NONE',  ( 0.000000000000000000, 0.000000000000000000, 1.000000000000000000 ) ) ;
#509 = LINE ( 'NONE', #339, #306 ) ;
#510 = CIRCLE ( 'NONE', #173, 1.249999999999987121 ) ;
#511 = ORIENTED_EDGE ( 'NONE', *, *, #413, .F. ) ;
#512 = FACE_BOUND ( 'NONE', #515, .T. ) ;
#513 = PRODUCT_DEFINITION ( 'UNKNOWN', '', #309, #181 ) ;
#514 = CARTESIAN_POINT ( 'NONE',  ( 0.000000000000000000, 3.000000000000000000, -53.10000000000000142 ) ) ;
#515 = EDGE_LOOP ( 'NONE', ( #5, #412 ) ) ;
#516 = LINE ( 'NONE', #97, #74 ) ;
#517 = AXIS2_PLACEMENT_3D ( 'NONE', #428, #388, #186 ) ;
#518 = PLANE ( 'NONE',  #38 ) ;
#519 = APPROVAL_ROLE ( '' ) ;
#520 = DIRECTION ( 'NONE',  ( 0.000000000000000000, 0.000000000000000000, 1.000000000000000000 ) ) ;
#521 = ORIENTED_EDGE ( 'NONE', *, *, #90, .F. ) ;
#522 = CALENDAR_DATE ( 2022, 16, 2 ) ;
#523 = EDGE_CURVE ( 'NONE', #230, #76, #516, .T. ) ;
#524 = DIRECTION ( 'NONE',  ( 1.000000000000000000, 0.000000000000000000, 0.000000000000000000 ) ) ;
#525 = VERTEX_POINT ( 'NONE', #253 ) ;
#526 = DATE_AND_TIME ( #36, #84 ) ;
#527 = VECTOR ( 'NONE', #135, 1000.000000000000000 ) ;
#528 = DIRECTION ( 'NONE',  ( 0.000000000000000000, 0.000000000000000000, -1.000000000000000000 ) ) ;
#529 = ORIENTED_EDGE ( 'NONE', *, *, #406, .F. ) ;
#530 = CARTESIAN_POINT ( 'NONE',  ( 53.50000000000000000, 0.000000000000000000, -46.50000000000000000 ) ) ;
#531 = ORIENTED_EDGE ( 'NONE', *, *, #304, .T. ) ;
#532 = EDGE_CURVE ( 'NONE', #331, #235, #205, .T. ) ;
#533 = PERSON_AND_ORGANIZATION ( #439, #448 ) ;
ENDSEC;
END-ISO-10303-21;
