  0
SECTION
  2
HEADER
  9
$MEASUREMENT
  70
  1
  9
$INSUNITS
  70
  4
  0
ENDSEC
  0
SECTION
  2
TABLES
  0
TABLE
  2
LTYPE
 70
     1
  0
LTYPE
  2
CONTINUOUS
 70
    64
  3
Ausgezogene Linie
 72
    65
 73
     0
 40
0.0
  0
ENDTAB
  0
TABLE
  2
LAYER
 70
     3
  0
LAYER
  2
Kontur
 70
    64
 62
     7
  6
CONTINUOUS
  0
LAYER
  2
Gravur
 70
    64
 62
     7
  6
CONTINUOUS
  0
LAYER
  2
Bezugspunkte
 70
    64
 62
     1
  6
CONTINUOUS
  0
ENDTAB
  0
TABLE
  2
STYLE
 70
     1
  0
STYLE
  2
TXT
 70
    64
 40
0.0
 41
1.0
 50
0.0
 71
     0
 42
3.500000
  3
TXT
  0
ENDTAB
  0
ENDSEC
  0
SECTION
  2
BLOCKS
  0
ENDSEC
  0
SECTION
  2
ENTITIES
  0
LINE
  8
Kontur
 62
   7
 39
0.100
  6
CONTINUOUS
 10
30.20000
 20
130.00000
 30
 0
 11
30.20000
 21
0.00000
  0
LINE
  8
Kontur
 62
   7
 39
0.100
  6
CONTINUOUS
 10
30.20000
 20
0.00000
 30
 0
 11
0.00000
 21
0.00000
  0
LINE
  8
Kontur
 62
   7
 39
0.100
  6
CONTINUOUS
 10
0.00000
 20
0.00000
 30
 0
 11
0.00000
 21
130.00000
  0
LINE
  8
Kontur
 62
   7
 39
0.100
  6
CONTINUOUS
 10
0.00000
 20
130.00000
 30
 0
 11
30.20000
 21
130.00000
  0
ARC
  8
Gravur
 62
   254
 39
0.400
  6
CONTINUOUS
 10
20.09250
 20
38.23125
 30
 0
 40
0.64075
 50
270.00000
 51
450.00000
  0
LINE
  8
Gravur
 62
   254
 39
0.400
  6
CONTINUOUS
 10
20.09250
 20
38.87200
 30
 0
 11
19.15273
 21
38.87200
  0
LINE
  8
Gravur
 62
   254
 39
0.400
  6
CONTINUOUS
 10
19.15273
 20
38.87200
 30
 0
 11
19.15273
 21
36.30900
  0
LINE
  8
Gravur
 62
   254
 39
0.400
  6
CONTINUOUS
 10
19.15273
 20
36.30900
 30
 0
 11
20.23489
 21
36.30900
  0
ARC
  8
Gravur
 62
   254
 39
0.400
  6
CONTINUOUS
 10
20.23489
 20
36.94975
 30
 0
 40
0.64075
 50
270.00000
 51
450.00000
  0
LINE
  8
Gravur
 62
   254
 39
0.400
  6
CONTINUOUS
 10
20.23489
 20
37.59050
 30
 0
 11
19.15273
 21
37.59050
  0
LINE
  8
Gravur
 62
   254
 39
0.400
  6
CONTINUOUS
 10
10.08873
 20
122.26300
 30
 0
 11
10.97154
 21
122.26300
  0
ARC
  8
Gravur
 62
   254
 39
0.400
  6
CONTINUOUS
 10
10.93838
 20
121.40461
 30
 0
 40
0.85903
 50
0.27068
 51
87.78728
  0
LINE
  8
Gravur
 62
   254
 39
0.400
  6
CONTINUOUS
 10
11.79740
 20
121.40867
 30
 0
 11
11.79740
 21
120.55433
  0
ARC
  8
Gravur
 62
   254
 39
0.400
  6
CONTINUOUS
 10
10.97297
 20
120.52495
 30
 0
 40
0.82495
 50
-90.09907
 51
2.04111
  0
LINE
  8
Gravur
 62
   254
 39
0.400
  6
CONTINUOUS
 10
10.97154
 20
119.70000
 30
 0
 11
10.08873
 21
119.70000
  0
LINE
  8
Gravur
 62
   254
 39
0.400
  6
CONTINUOUS
 10
10.08873
 20
119.70000
 30
 0
 11
10.08873
 21
122.26300
  0
LINE
  8
Gravur
 62
   254
 39
0.400
  6
CONTINUOUS
 10
12.48173
 20
122.26200
 30
 0
 11
12.48173
 21
122.11961
  0
LINE
  8
Gravur
 62
   254
 39
0.400
  6
CONTINUOUS
 10
12.48173
 20
121.40767
 30
 0
 11
12.48173
 21
119.69900
  0
LINE
  8
Gravur
 62
   254
 39
0.400
  6
CONTINUOUS
 10
14.58962
 20
121.40767
 30
 0
 11
14.58962
 21
120.41094
  0
ARC
  8
Gravur
 62
   254
 39
0.400
  6
CONTINUOUS
 10
13.87768
 20
120.38247
 30
 0
 40
0.71251
 50
-177.70939
 51
2.29061
  0
LINE
  8
Gravur
 62
   254
 39
0.400
  6
CONTINUOUS
 10
13.16573
 20
120.35399
 30
 0
 11
13.16573
 21
120.69572
  0
ARC
  8
Gravur
 62
   254
 39
0.400
  6
CONTINUOUS
 10
13.87768
 20
120.69572
 30
 0
 40
0.71194
 50
0.00000
 51
180.00000
  0
LINE
  8
Gravur
 62
   254
 39
0.400
  6
CONTINUOUS
 10
14.58962
 20
120.69572
 30
 0
 11
14.58962
 21
119.55661
  0
ARC
  8
Gravur
 62
   254
 39
0.400
  6
CONTINUOUS
 10
13.87165
 20
119.55282
 30
 0
 40
0.71798
 50
-134.87369
 51
0.30252
  0
LINE
  8
Gravur
 62
   254
 39
0.400
  6
CONTINUOUS
 10
15.27373
 20
122.26200
 30
 0
 11
15.27373
 21
122.11961
  0
LINE
  8
Gravur
 62
   254
 39
0.400
  6
CONTINUOUS
 10
15.27373
 20
121.40767
 30
 0
 11
15.27373
 21
119.69900
  0
LINE
  8
Gravur
 62
   254
 39
0.400
  6
CONTINUOUS
 10
16.21303
 20
122.26200
 30
 0
 11
16.21303
 21
121.40767
  0
LINE
  8
Gravur
 62
   254
 39
0.400
  6
CONTINUOUS
 10
16.21303
 20
121.40767
 30
 0
 11
16.64020
 21
121.40767
  0
LINE
  8
Gravur
 62
   254
 39
0.400
  6
CONTINUOUS
 10
16.64020
 20
121.40767
 30
 0
 11
15.92826
 21
121.40767
  0
LINE
  8
Gravur
 62
   254
 39
0.400
  6
CONTINUOUS
 10
15.92826
 20
121.40767
 30
 0
 11
16.21303
 21
121.40767
  0
LINE
  8
Gravur
 62
   254
 39
0.400
  6
CONTINUOUS
 10
16.21303
 20
121.40767
 30
 0
 11
16.21303
 21
120.04073
  0
ARC
  8
Gravur
 62
   254
 39
0.400
  6
CONTINUOUS
 10
16.56035
 20
120.04064
 30
 0
 40
0.34731
 50
179.98432
 51
259.62682
  0
LINE
  8
Gravur
 62
   254
 39
0.400
  6
CONTINUOUS
 10
18.80358
 20
121.40667
 30
 0
 11
18.80358
 21
120.40994
  0
ARC
  8
Gravur
 62
   254
 39
0.400
  6
CONTINUOUS
 10
18.06316
 20
120.40994
 30
 0
 40
0.74042
 50
-180.00000
 51
0.00000
  0
LINE
  8
Gravur
 62
   254
 39
0.400
  6
CONTINUOUS
 10
17.32273
 20
120.40994
 30
 0
 11
17.32273
 21
120.69472
  0
ARC
  8
Gravur
 62
   254
 39
0.400
  6
CONTINUOUS
 10
18.06316
 20
120.69472
 30
 0
 40
0.74042
 50
0.00000
 51
180.00000
  0
LINE
  8
Gravur
 62
   254
 39
0.400
  6
CONTINUOUS
 10
18.80358
 20
120.69472
 30
 0
 11
18.80358
 21
120.01126
  0
ARC
  8
Gravur
 62
   254
 39
0.400
  6
CONTINUOUS
 10
19.21646
 20
120.04955
 30
 0
 40
0.41466
 50
185.29897
 51
260.11981
  0
LINE
  8
Gravur
 62
   254
 39
0.400
  6
CONTINUOUS
 10
19.82873
 20
122.26100
 30
 0
 11
19.82873
 21
120.03973
  0
ARC
  8
Gravur
 62
   254
 39
0.400
  6
CONTINUOUS
 10
20.17605
 20
120.03964
 30
 0
 40
0.34731
 50
179.98432
 51
259.62682
  0
LINE
  8
Gravur
 62
   254
 39
0.400
  6
CONTINUOUS
 10
5.34780
 20
115.90150
 30
 0
 11
5.97431
 21
115.90150
  0
LINE
  8
Gravur
 62
   254
 39
0.400
  6
CONTINUOUS
 10
5.97431
 20
115.90150
 30
 0
 11
5.97431
 21
115.47433
  0
ARC
  8
Gravur
 62
   254
 39
0.400
  6
CONTINUOUS
 10
5.06302
 20
115.47433
 30
 0
 40
0.91129
 50
-180.00000
 51
0.00000
  0
LINE
  8
Gravur
 62
   254
 39
0.400
  6
CONTINUOUS
 10
4.15173
 20
115.47433
 30
 0
 11
4.15173
 21
116.32867
  0
ARC
  8
Gravur
 62
   254
 39
0.400
  6
CONTINUOUS
 10
5.02937
 20
116.34936
 30
 0
 40
0.87788
 50
31.86328
 51
181.35068
  0
LINE
  8
Gravur
 62
   254
 39
0.400
  6
CONTINUOUS
 10
8.13958
 20
116.32867
 30
 0
 11
8.13958
 21
115.33194
  0
ARC
  8
Gravur
 62
   254
 39
0.400
  6
CONTINUOUS
 10
7.39916
 20
115.33194
 30
 0
 40
0.74042
 50
-180.00000
 51
0.00000
  0
LINE
  8
Gravur
 62
   254
 39
0.400
  6
CONTINUOUS
 10
6.65873
 20
115.33194
 30
 0
 11
6.65873
 21
115.61672
  0
ARC
  8
Gravur
 62
   254
 39
0.400
  6
CONTINUOUS
 10
7.39916
 20
115.61672
 30
 0
 40
0.74042
 50
0.00000
 51
180.00000
  0
LINE
  8
Gravur
 62
   254
 39
0.400
  6
CONTINUOUS
 10
8.13958
 20
115.61672
 30
 0
 11
8.13958
 21
114.93326
  0
ARC
  8
Gravur
 62
   254
 39
0.400
  6
CONTINUOUS
 10
8.55246
 20
114.97155
 30
 0
 40
0.41466
 50
185.29897
 51
260.11981
  0
LINE
  8
Gravur
 62
   254
 39
0.400
  6
CONTINUOUS
 10
9.16573
 20
114.62100
 30
 0
 11
9.16573
 21
117.18400
  0
LINE
  8
Gravur
 62
   254
 39
0.400
  6
CONTINUOUS
 10
9.16573
 20
117.18400
 30
 0
 11
10.87440
 21
114.62100
  0
LINE
  8
Gravur
 62
   254
 39
0.400
  6
CONTINUOUS
 10
10.87440
 20
114.62100
 30
 0
 11
10.87440
 21
117.18400
  0
LINE
  8
Gravur
 62
   254
 39
0.400
  6
CONTINUOUS
 10
13.38173
 20
117.18400
 30
 0
 11
13.38173
 21
114.62100
  0
LINE
  8
Gravur
 62
   254
 39
0.400
  6
CONTINUOUS
 10
14.06573
 20
114.62100
 30
 0
 11
14.06573
 21
116.32967
  0
LINE
  8
Gravur
 62
   254
 39
0.400
  6
CONTINUOUS
 10
14.06573
 20
116.32967
 30
 0
 11
14.06573
 21
115.61772
  0
ARC
  8
Gravur
 62
   254
 39
0.400
  6
CONTINUOUS
 10
14.77768
 20
115.61772
 30
 0
 40
0.71194
 50
0.00000
 51
180.00000
  0
LINE
  8
Gravur
 62
   254
 39
0.400
  6
CONTINUOUS
 10
15.48962
 20
115.61772
 30
 0
 11
15.48962
 21
114.62100
  0
LINE
  8
Gravur
 62
   254
 39
0.400
  6
CONTINUOUS
 10
16.17273
 20
116.32967
 30
 0
 11
16.88468
 21
114.62100
  0
LINE
  8
Gravur
 62
   254
 39
0.400
  6
CONTINUOUS
 10
16.88468
 20
114.62100
 30
 0
 11
17.59662
 21
116.32967
  0
LINE
  8
Gravur
 62
   254
 39
0.400
  6
CONTINUOUS
 10
18.27973
 20
115.47533
 30
 0
 11
19.70362
 21
115.47533
  0
LINE
  8
Gravur
 62
   254
 39
0.400
  6
CONTINUOUS
 10
19.70362
 20
115.47533
 30
 0
 11
19.70362
 21
115.61772
  0
ARC
  8
Gravur
 62
   254
 39
0.400
  6
CONTINUOUS
 10
18.99168
 20
115.61772
 30
 0
 40
0.71194
 50
0.00000
 51
180.00000
  0
LINE
  8
Gravur
 62
   254
 39
0.400
  6
CONTINUOUS
 10
18.27973
 20
115.61772
 30
 0
 11
18.27973
 21
115.33294
  0
ARC
  8
Gravur
 62
   254
 39
0.400
  6
CONTINUOUS
 10
19.02631
 20
115.33235
 30
 0
 40
0.74658
 50
179.95424
 51
322.44599
  0
LINE
  8
Gravur
 62
   254
 39
0.400
  6
CONTINUOUS
 10
20.38673
 20
114.62100
 30
 0
 11
20.38673
 21
116.32967
  0
LINE
  8
Gravur
 62
   254
 39
0.400
  6
CONTINUOUS
 10
20.38673
 20
116.32967
 30
 0
 11
20.38673
 21
115.76011
  0
ARC
  8
Gravur
 62
   254
 39
0.400
  6
CONTINUOUS
 10
21.01604
 20
115.76013
 30
 0
 40
0.62931
 50
140.69073
 51
180.00162
  0
ARC
  8
Gravur
 62
   254
 39
0.400
  6
CONTINUOUS
 10
20.84238
 20
115.90127
 30
 0
 40
0.40553
 50
39.42406
 51
140.57594
  0
LINE
  8
Gravur
 62
   254
 39
0.400
  6
CONTINUOUS
 10
22.06603
 20
117.18400
 30
 0
 11
22.06603
 21
116.32967
  0
LINE
  8
Gravur
 62
   254
 39
0.400
  6
CONTINUOUS
 10
22.06603
 20
116.32967
 30
 0
 11
22.49320
 21
116.32967
  0
LINE
  8
Gravur
 62
   254
 39
0.400
  6
CONTINUOUS
 10
22.49320
 20
116.32967
 30
 0
 11
21.78126
 21
116.32967
  0
LINE
  8
Gravur
 62
   254
 39
0.400
  6
CONTINUOUS
 10
21.78126
 20
116.32967
 30
 0
 11
22.06603
 21
116.32967
  0
LINE
  8
Gravur
 62
   254
 39
0.400
  6
CONTINUOUS
 10
22.06603
 20
116.32967
 30
 0
 11
22.06603
 21
114.96273
  0
ARC
  8
Gravur
 62
   254
 39
0.400
  6
CONTINUOUS
 10
22.41335
 20
114.96264
 30
 0
 40
0.34731
 50
179.98432
 51
259.62682
  0
LINE
  8
Gravur
 62
   254
 39
0.400
  6
CONTINUOUS
 10
23.17573
 20
115.47533
 30
 0
 11
24.59962
 21
115.47533
  0
LINE
  8
Gravur
 62
   254
 39
0.400
  6
CONTINUOUS
 10
24.59962
 20
115.47533
 30
 0
 11
24.59962
 21
115.61772
  0
ARC
  8
Gravur
 62
   254
 39
0.400
  6
CONTINUOUS
 10
23.88768
 20
115.61772
 30
 0
 40
0.71194
 50
0.00000
 51
179.99999
  0
LINE
  8
Gravur
 62
   254
 39
0.400
  6
CONTINUOUS
 10
23.17573
 20
115.61772
 30
 0
 11
23.17573
 21
115.33294
  0
ARC
  8
Gravur
 62
   254
 39
0.400
  6
CONTINUOUS
 10
23.92231
 20
115.33235
 30
 0
 40
0.74658
 50
179.95424
 51
322.44599
  0
LINE
  8
Gravur
 62
   254
 39
0.400
  6
CONTINUOUS
 10
25.28273
 20
114.62100
 30
 0
 11
25.28273
 21
116.32967
  0
LINE
  8
Gravur
 62
   254
 39
0.400
  6
CONTINUOUS
 10
25.28273
 20
116.32967
 30
 0
 11
25.28273
 21
115.76011
  0
ARC
  8
Gravur
 62
   254
 39
0.400
  6
CONTINUOUS
 10
25.91204
 20
115.76013
 30
 0
 40
0.62931
 50
140.69073
 51
180.00162
  0
ARC
  8
Gravur
 62
   254
 39
0.400
  6
CONTINUOUS
 10
25.73838
 20
115.90127
 30
 0
 40
0.40553
 50
39.42406
 51
140.57594
  0
LINE
  8
Gravur
 62
   254
 39
0.400
  6
CONTINUOUS
 10
19.28851
 20
51.32094
 30
 0
 11
20.71240
 21
51.32094
  0
LINE
  8
Gravur
 62
   254
 39
0.400
  6
CONTINUOUS
 10
19.00373
 20
50.60900
 30
 0
 11
20.00046
 21
53.17200
  0
LINE
  8
Gravur
 62
   254
 39
0.400
  6
CONTINUOUS
 10
20.00046
 20
53.17200
 30
 0
 11
20.99718
 21
50.60900
  0
LINE
  8
Gravur
 62
   254
 39
0.400
  6
CONTINUOUS
 10
3.10100
 20
88.25000
 30
 0
 11
27.09900
 21
88.25000
  0
LINE
  8
Gravur
 62
   254
 39
0.400
  6
CONTINUOUS
 10
3.10100
 20
113.50000
 30
 0
 11
27.09900
 21
113.50000
  0
ARC
  8
Gravur
 62
   254
 39
0.400
  6
CONTINUOUS
 10
20.01041
 20
22.79923
 30
 0
 40
0.83504
 50
28.82122
 51
181.68902
  0
LINE
  8
Gravur
 62
   254
 39
0.400
  6
CONTINUOUS
 10
19.17573
 20
22.77462
 30
 0
 11
19.17573
 21
21.80638
  0
ARC
  8
Gravur
 62
   254
 39
0.400
  6
CONTINUOUS
 10
20.03156
 20
21.80780
 30
 0
 40
0.85583
 50
180.09515
 51
338.42706
  0
LINE
  8
Gravur
 62
   254
 39
0.400
  6
CONTINUOUS
 10
15.80073
 20
81.77200
 30
 0
 11
16.68354
 21
81.77200
  0
ARC
  8
Gravur
 62
   254
 39
0.400
  6
CONTINUOUS
 10
16.65038
 20
80.91361
 30
 0
 40
0.85903
 50
0.27068
 51
87.78728
  0
LINE
  8
Gravur
 62
   254
 39
0.400
  6
CONTINUOUS
 10
17.50940
 20
80.91767
 30
 0
 11
17.50940
 21
80.06333
  0
ARC
  8
Gravur
 62
   254
 39
0.400
  6
CONTINUOUS
 10
16.68497
 20
80.03395
 30
 0
 40
0.82495
 50
-90.09907
 51
2.04111
  0
LINE
  8
Gravur
 62
   254
 39
0.400
  6
CONTINUOUS
 10
16.68354
 20
79.20900
 30
 0
 11
15.80073
 21
79.20900
  0
LINE
  8
Gravur
 62
   254
 39
0.400
  6
CONTINUOUS
 10
15.80073
 20
79.20900
 30
 0
 11
15.80073
 21
81.77200
  0
ARC
  8
Gravur
 62
   254
 39
0.400
  6
CONTINUOUS
 10
19.02841
 20
80.99923
 30
 0
 40
0.83504
 50
28.82122
 51
181.68902
  0
LINE
  8
Gravur
 62
   254
 39
0.400
  6
CONTINUOUS
 10
18.19373
 20
80.97462
 30
 0
 11
18.19373
 21
80.00638
  0
ARC
  8
Gravur
 62
   254
 39
0.400
  6
CONTINUOUS
 10
19.04956
 20
80.00780
 30
 0
 40
0.85583
 50
180.09515
 51
338.42706
  0
LINE
  8
Gravur
 62
   254
 39
0.400
  6
CONTINUOUS
 10
22.72094
 20
80.49050
 30
 0
 11
24.20179
 21
80.49050
  0
LINE
  8
Gravur
 62
   254
 39
0.400
  6
CONTINUOUS
 10
23.46137
 20
79.75008
 30
 0
 11
23.46137
 21
81.23092
  0
LINE
  8
Gravur
 62
   254
 39
0.400
  6
CONTINUOUS
 10
15.98573
 20
67.47200
 30
 0
 11
16.86854
 21
67.47200
  0
ARC
  8
Gravur
 62
   254
 39
0.400
  6
CONTINUOUS
 10
16.83538
 20
66.61361
 30
 0
 40
0.85903
 50
0.27068
 51
87.78728
  0
LINE
  8
Gravur
 62
   254
 39
0.400
  6
CONTINUOUS
 10
17.69440
 20
66.61767
 30
 0
 11
17.69440
 21
65.76333
  0
ARC
  8
Gravur
 62
   254
 39
0.400
  6
CONTINUOUS
 10
16.86997
 20
65.73395
 30
 0
 40
0.82495
 50
-90.09907
 51
2.04111
  0
LINE
  8
Gravur
 62
   254
 39
0.400
  6
CONTINUOUS
 10
16.86854
 20
64.90900
 30
 0
 11
15.98573
 21
64.90900
  0
LINE
  8
Gravur
 62
   254
 39
0.400
  6
CONTINUOUS
 10
15.98573
 20
64.90900
 30
 0
 11
15.98573
 21
67.47200
  0
ARC
  8
Gravur
 62
   254
 39
0.400
  6
CONTINUOUS
 10
19.21341
 20
66.69923
 30
 0
 40
0.83504
 50
28.82122
 51
181.68902
  0
LINE
  8
Gravur
 62
   254
 39
0.400
  6
CONTINUOUS
 10
18.37873
 20
66.67462
 30
 0
 11
18.37873
 21
65.70638
  0
ARC
  8
Gravur
 62
   254
 39
0.400
  6
CONTINUOUS
 10
19.23456
 20
65.70780
 30
 0
 40
0.85583
 50
180.09515
 51
338.42706
  0
LINE
  8
Gravur
 62
   254
 39
0.400
  6
CONTINUOUS
 10
22.53573
 20
66.19050
 30
 0
 11
24.01658
 21
66.19050
  0
ARC
  8
Gravur
 62
   254
 39
0.400
  6
CONTINUOUS
 10
13.19064
 20
72.99404
 30
 0
 40
0.56218
 50
0.00000
 51
180.00000
  0
LINE
  8
Gravur
 62
   254
 39
0.400
  6
CONTINUOUS
 10
13.75282
 20
72.99404
 30
 0
 11
13.75282
 21
72.88593
  0
ARC
  8
Gravur
 62
   254
 39
0.400
  6
CONTINUOUS
 10
13.19064
 20
72.88593
 30
 0
 40
0.56218
 50
-180.00000
 51
0.00000
  0
LINE
  8
Gravur
 62
   254
 39
0.400
  6
CONTINUOUS
 10
12.62847
 20
72.88593
 30
 0
 11
12.62847
 21
73.72920
  0
ARC
  8
Gravur
 62
   254
 39
0.400
  6
CONTINUOUS
 10
13.22735
 20
73.75309
 30
 0
 40
0.59936
 50
45.86651
 51
182.28449
  0
LINE
  8
Gravur
 62
   254
 39
0.400
  6
CONTINUOUS
 10
14.27247
 20
73.79407
 30
 0
 11
14.27247
 21
72.88593
  0
ARC
  8
Gravur
 62
   254
 39
0.400
  6
CONTINUOUS
 10
14.83464
 20
72.88593
 30
 0
 40
0.56218
 50
180.00000
 51
360.00000
  0
LINE
  8
Gravur
 62
   254
 39
0.400
  6
CONTINUOUS
 10
15.39682
 20
72.88593
 30
 0
 11
15.39682
 21
73.79407
  0
ARC
  8
Gravur
 62
   254
 39
0.400
  6
CONTINUOUS
 10
14.83464
 20
73.79407
 30
 0
 40
0.56218
 50
0.00000
 51
180.00000
  0
LINE
  8
Gravur
 62
   254
 39
0.400
  6
CONTINUOUS
 10
15.91647
 20
73.79407
 30
 0
 11
15.91647
 21
72.88593
  0
ARC
  8
Gravur
 62
   254
 39
0.400
  6
CONTINUOUS
 10
16.47864
 20
72.88593
 30
 0
 40
0.56218
 50
180.00000
 51
360.00000
  0
LINE
  8
Gravur
 62
   254
 39
0.400
  6
CONTINUOUS
 10
17.04082
 20
72.88593
 30
 0
 11
17.04082
 21
73.79407
  0
ARC
  8
Gravur
 62
   254
 39
0.400
  6
CONTINUOUS
 10
16.47864
 20
73.79407
 30
 0
 40
0.56218
 50
0.00000
 51
180.00000
  0
LINE
  8
Gravur
 62
   254
 39
0.400
  6
CONTINUOUS
 10
18.94447
 20
74.31300
 30
 0
 11
19.59313
 21
72.36700
  0
LINE
  8
Gravur
 62
   254
 39
0.400
  6
CONTINUOUS
 10
19.59313
 20
72.36700
 30
 0
 11
20.24180
 21
74.31300
  0
LINE
  8
Gravur
 62
   254
 39
0.400
  6
CONTINUOUS
 10
22.14347
 20
72.36700
 30
 0
 11
22.14347
 21
73.66433
  0
LINE
  8
Gravur
 62
   254
 39
0.400
  6
CONTINUOUS
 10
22.14347
 20
73.66433
 30
 0
 11
22.14347
 21
73.23189
  0
ARC
  8
Gravur
 62
   254
 39
0.400
  6
CONTINUOUS
 10
22.57591
 20
73.23189
 30
 0
 40
0.43244
 50
0.00000
 51
180.00000
  0
LINE
  8
Gravur
 62
   254
 39
0.400
  6
CONTINUOUS
 10
23.00836
 20
73.23189
 30
 0
 11
23.00836
 21
72.36700
  0
LINE
  8
Gravur
 62
   254
 39
0.400
  6
CONTINUOUS
 10
23.00836
 20
72.36700
 30
 0
 11
23.00836
 21
73.23189
  0
ARC
  8
Gravur
 62
   254
 39
0.400
  6
CONTINUOUS
 10
23.44080
 20
73.23189
 30
 0
 40
0.43244
 50
0.00000
 51
180.00000
  0
LINE
  8
Gravur
 62
   254
 39
0.400
  6
CONTINUOUS
 10
23.87324
 20
73.23189
 30
 0
 11
23.87324
 21
72.36700
  0
LINE
  8
Gravur
 62
   254
 39
0.400
  6
CONTINUOUS
 10
25.51582
 20
73.66533
 30
 0
 11
25.51582
 21
72.90856
  0
ARC
  8
Gravur
 62
   254
 39
0.400
  6
CONTINUOUS
 10
24.95364
 20
72.90856
 30
 0
 40
0.56218
 50
-180.00000
 51
0.00000
  0
LINE
  8
Gravur
 62
   254
 39
0.400
  6
CONTINUOUS
 10
24.39147
 20
72.90856
 30
 0
 11
24.39147
 21
73.12478
  0
ARC
  8
Gravur
 62
   254
 39
0.400
  6
CONTINUOUS
 10
24.95364
 20
73.12478
 30
 0
 40
0.56218
 50
0.00000
 51
180.00000
  0
LINE
  8
Gravur
 62
   254
 39
0.400
  6
CONTINUOUS
 10
25.51582
 20
73.12478
 30
 0
 11
25.51582
 21
72.60584
  0
ARC
  8
Gravur
 62
   254
 39
0.400
  6
CONTINUOUS
 10
25.82931
 20
72.63492
 30
 0
 40
0.31483
 50
185.29897
 51
260.11981
  0
LINE
  8
Gravur
 62
   254
 39
0.400
  6
CONTINUOUS
 10
26.29347
 20
73.66533
 30
 0
 11
27.37458
 21
72.36800
  0
LINE
  8
Gravur
 62
   254
 39
0.400
  6
CONTINUOUS
 10
26.29347
 20
72.36800
 30
 0
 11
27.37458
 21
73.66533
  0
CIRCLE
  8
Gravur
 62
   7
 39
0.100
  6
CONTINUOUS
 10
15.10000
 20
4.00000
 30
 0
 40
3.00000
  0
CIRCLE
  8
Gravur
 62
   7
 39
0.100
  6
CONTINUOUS
 10
15.10000
 20
4.00000
 30
 0
 40
1.60000
  0
CIRCLE
  8
Gravur
 62
   7
 39
0.100
  6
CONTINUOUS
 10
15.10000
 20
4.00000
 30
 0
 40
3.00000
  0
CIRCLE
  8
Kontur
 62
   7
 39
0.100
  6
CONTINUOUS
 10
15.10000
 20
4.00000
 30
 0
 40
1.60000
  0
CIRCLE
  8
Kontur
 62
   7
 39
0.100
  6
CONTINUOUS
 10
15.10000
 20
126.00000
 30
 0
 40
3.00000
  0
CIRCLE
  8
Kontur
 62
   7
 39
0.100
  6
CONTINUOUS
 10
15.10000
 20
126.00000
 30
 0
 40
1.60000
  0
CIRCLE
  8
Kontur
 62
   7
 39
0.100
  6
CONTINUOUS
 10
15.10000
 20
126.00000
 30
 0
 40
3.00000
  0
CIRCLE
  8
Kontur
 62
   7
 39
0.100
  6
CONTINUOUS
 10
15.10000
 20
126.00000
 30
 0
 40
1.60000
  0
ARC
  8
Kontur
 62
   7
 39
0.100
  6
CONTINUOUS
 10
0.00000
 20
95.90000
 30
 0
 40
1.00000
 50
180.00000
 51
270.00000
  0
LINE
  8
Kontur
 62
   7
 39
0.100
  6
CONTINUOUS
 10
0.00000
 20
94.90000
 30
 0
 11
14.00000
 21
94.90000
  0
ARC
  8
Kontur
 62
   7
 39
0.100
  6
CONTINUOUS
 10
14.00000
 20
95.90000
 30
 0
 40
1.00000
 50
270.00000
 51
360.00000
  0
LINE
  8
Kontur
 62
   7
 39
0.100
  6
CONTINUOUS
 10
15.00000
 20
95.90000
 30
 0
 11
15.00000
 21
110.90000
  0
ARC
  8
Kontur
 62
   7
 39
0.100
  6
CONTINUOUS
 10
14.00000
 20
110.90000
 30
 0
 40
1.00000
 50
0.00000
 51
90.00000
  0
LINE
  8
Kontur
 62
   7
 39
0.100
  6
CONTINUOUS
 10
14.00000
 20
111.90000
 30
 0
 11
0.00000
 21
111.90000
  0
ARC
  8
Kontur
 62
   7
 39
0.100
  6
CONTINUOUS
 10
0.00000
 20
110.90000
 30
 0
 40
1.00000
 50
90.00000
 51
180.00000
  0
LINE
  8
Kontur
 62
   7
 39
0.100
  6
CONTINUOUS
 10
-1.00000
 20
110.90000
 30
 0
 11
-1.00000
 21
95.90000
  0
ARC
  8
Kontur
 62
   7
 39
0.100
  6
CONTINUOUS
 10
16.00000
 20
91.30000
 30
 0
 40
1.00000
 50
180.00000
 51
270.00000
  0
LINE
  8
Kontur
 62
   7
 39
0.100
  6
CONTINUOUS
 10
16.00000
 20
90.30000
 30
 0
 11
30.00000
 21
90.30000
  0
ARC
  8
Kontur
 62
   7
 39
0.100
  6
CONTINUOUS
 10
30.00000
 20
91.30000
 30
 0
 40
1.00000
 50
270.00000
 51
360.00000
  0
LINE
  8
Kontur
 62
   7
 39
0.100
  6
CONTINUOUS
 10
31.00000
 20
91.30000
 30
 0
 11
31.00000
 21
106.30000
  0
ARC
  8
Kontur
 62
   7
 39
0.100
  6
CONTINUOUS
 10
30.00000
 20
106.30000
 30
 0
 40
1.00000
 50
0.00000
 51
90.00000
  0
LINE
  8
Kontur
 62
   7
 39
0.100
  6
CONTINUOUS
 10
30.00000
 20
107.30000
 30
 0
 11
16.00000
 21
107.30000
  0
ARC
  8
Kontur
 62
   7
 39
0.100
  6
CONTINUOUS
 10
16.00000
 20
106.30000
 30
 0
 40
1.00000
 50
90.00000
 51
180.00000
  0
LINE
  8
Kontur
 62
   7
 39
0.100
  6
CONTINUOUS
 10
15.00000
 20
106.30000
 30
 0
 11
15.00000
 21
91.30000
  0
CIRCLE
  8
Kontur
 62
   7
 39
0.100
  6
CONTINUOUS
 10
7.25000
 20
23.29000
 30
 0
 40
6.00000
  0
CIRCLE
  8
Kontur
 62
   7
 39
0.100
  6
CONTINUOUS
 10
7.25000
 20
37.59000
 30
 0
 40
6.00000
  0
CIRCLE
  8
Kontur
 62
   7
 39
0.100
  6
CONTINUOUS
 10
7.25000
 20
51.89000
 30
 0
 40
6.00000
  0
CIRCLE
  8
Kontur
 62
   7
 39
0.100
  6
CONTINUOUS
 10
7.25000
 20
66.19000
 30
 0
 40
6.00000
  0
CIRCLE
  8
Kontur
 62
   7
 39
0.100
  6
CONTINUOUS
 10
7.25000
 20
80.49000
 30
 0
 40
6.00000
  0
ENDSEC
  0
EOF
